<?xml version="1.0" encoding="utf-8"?>
<svg xmlns="http://www.w3.org/2000/svg" xmlns:xlink="http://www.w3.org/1999/xlink" width="200" height="112">
  <path fill="#313131" transform="matrix(0.280702 0 0 0.280702 -1.05264 0)" d="M-0 -0L720 0L720 399L-0 399L0 -0Z"></path>
  <path fill="#FFD700" transform="matrix(0.280702 0 0 0.280702 -1.05264 0)" d="M0 0L720 0L720 399L0 399L0 0Z"></path>
  <path fill="white" transform="matrix(0.112281 0 0 0.112281 144.63 43.5035)" d="M-0.00012207 -217C120.122 -217 217.5 -119.846 217.5 0C217.5 119.846 120.122 217 -0.00012207 217C-120.122 217 -217.5 119.846 -217.5 0C-217.5 -119.846 -120.122 -217 -0.00012207 -217Z"></path>
  <clipPath id="cl_9">
    <path d="M144.63 19.1386C158.118 19.1386 169.051 30.0471 169.051 43.5035C169.051 56.9599 158.118 67.8684 144.63 67.8684C131.143 67.8684 120.209 56.9599 120.209 43.5035C120.209 30.0471 131.143 19.1386 144.63 19.1386Z"></path>
  </clipPath>
  <g clip-path="url(#cl_9)">
    <path transform="matrix(0.112281 0 0 0.112281 133.066 43.5035)" d="M0 -61.5C33.6894 -61.5 61 -33.9655 61 0C61 33.9655 33.6894 61.5 0 61.5C-33.6894 61.5 -61 33.9655 -61 0C-61 -33.9655 -33.6894 -61.5 0 -61.5Z"></path>
  </g>
  <path fill="white" transform="matrix(0.112281 0 0 0.112281 53.2141 43.9835)" d="M-3.05176e-05 -217C120.122 -217 217.5 -119.846 217.5 0C217.5 119.846 120.122 217 -3.05176e-05 217C-120.122 217 -217.5 119.846 -217.5 0C-217.5 -119.846 -120.122 -217 -3.05176e-05 -217Z"></path>
  <clipPath id="cl_a">
    <path d="M53.2141 19.6186C66.7015 19.6186 77.6351 30.5271 77.6351 43.9835C77.6351 57.4399 66.7015 68.3484 53.2141 68.3484C39.7267 68.3484 28.793 57.4399 28.793 43.9835C28.793 30.5271 39.7267 19.6186 53.2141 19.6186Z"></path>
  </clipPath>
  <g clip-path="url(#cl_a)">
    <path transform="matrix(0.112281 0 0 0.112281 65.2843 43.9835)" d="M0 -61.5C33.6894 -61.5 61 -33.9655 61 0C61 33.9655 33.6894 61.5 0 61.5C-33.6894 61.5 -61 33.9655 -61 0C-61 -33.9655 -33.6894 -61.5 0 -61.5Z"></path>
  </g>
</svg>