<?xml version="1.0" encoding="utf-8"?>
<svg xmlns="http://www.w3.org/2000/svg" xmlns:xlink="http://www.w3.org/1999/xlink" width="200" height="112">
  <path fill="#313131" transform="matrix(0.280702 0 0 0.280702 -1.05264 0)" d="M-0 -0L720 0L720 399L-0 399L0 -0Z"></path>
  <path fill="#FFD700" transform="matrix(0.280702 0 0 0.280702 -1.05264 0)" d="M0 0L720 0L720 399L0 399L0 0Z"></path>
  <path fill="white" transform="matrix(0.112281 0 0 0.112281 127.957 65.9597)" d="M-7.27596e-12 -3.05176e-05C120.122 -3.05176e-05 217.5 -3.05176e-05 217.5 -6.10352e-05C217.5 119.846 120.122 217 -0.00012207 217C-120.122 217 -217.5 119.846 -217.5 -6.10352e-05C-217.5 -3.05176e-05 -120.122 -4.1019e-05 -7.27596e-12 -3.05176e-05Z"></path>
  <clipPath id="cl_7">
    <path d="M127.957 65.9597C141.444 65.9597 152.378 65.9597 152.378 65.9597C152.378 79.416 141.444 90.3246 127.957 90.3246C114.469 90.3246 103.536 79.416 103.536 65.9597C103.536 65.9597 114.469 65.9597 127.957 65.9597Z"></path>
  </clipPath>
  <g clip-path="url(#cl_7)">
    <path transform="matrix(0.112281 0 0 0.112281 127.957 65.9597)" d="M-0.00012207 -61.5001C33.6892 -61.5001 60.9999 -33.9656 60.9999 -6.10352e-05C60.9999 33.9655 33.6892 61.4999 -0.00012207 61.4999C-33.6895 61.4999 -61.0001 33.9655 -61.0001 -6.10352e-05C-61.0001 -33.9656 -33.6895 -61.5001 -0.00012207 -61.5001Z"></path>
  </g>
  <path fill="white" transform="matrix(0.112281 0 0 0.112281 71.9088 66.4397)" d="M0 -4.27499C120.122 -4.27499 217.5 -3.34064 217.5 -3.3407C217.5 116.505 120.122 217 0 217C-120.122 217 -217.5 116.505 -217.5 -3.34058C-217.5 -3.34051 -120.122 -4.275 0 -4.27499Z"></path>
  <clipPath id="cl_8">
    <path d="M71.9088 65.9597C85.3962 65.9597 96.3299 66.0646 96.3299 66.0646C96.3299 79.5209 85.3962 90.8046 71.9088 90.8046C58.4214 90.8046 47.4878 79.5209 47.4878 66.0646C47.4878 66.0646 58.4214 65.9597 71.9088 65.9597Z"></path>
  </clipPath>
  <g clip-path="url(#cl_8)">
    <path transform="matrix(0.112281 0 0 0.112281 71.9088 66.4397)" d="M0 -61.5C33.6894 -61.5 61 -33.9655 61 0C61 33.9655 33.6894 61.5 0 61.5C-33.6894 61.5 -61 33.9655 -61 0C-61 -33.9655 -33.6894 -61.5 0 -61.5Z"></path>
  </g>
</svg>