<?xml version="1.0" encoding="utf-8"?>
<svg xmlns="http://www.w3.org/2000/svg" xmlns:xlink="http://www.w3.org/1999/xlink" width="200" height="112">
  <path fill="#313131" transform="matrix(0.280702 0 0 0.280702 -1.05264 0)" d="M-0 -0L720 0L720 399L-0 399L0 -0Z"></path>
  <path fill="#FFD700" transform="matrix(0.280702 0 0 0.280702 -1.05264 0)" d="M0 0L720 0L720 399L0 399L0 0Z"></path>
  <path fill="white" transform="matrix(0.111188 -0.0156265 0.0156265 0.111188 127.957 65.9597)" d="M0.00012207 -3.05176e-05C120.122 -2.87276e-05 217.5 -2.72766e-05 217.5 -5.77942e-05C217.5 119.846 120.122 217 -3.23355e-06 217C-120.122 217 -217.5 119.846 -217.5 -6.42762e-05C-217.5 -3.37586e-05 -120.122 -4.28089e-05 0.00012207 -3.05176e-05Z"></path>
  <clipPath id="cl_b">
    <path d="M127.957 65.9597C141.313 64.0826 152.14 62.5609 152.14 62.5609C154.013 75.8863 144.704 88.2104 131.348 90.0875C117.992 91.9645 105.646 82.6838 103.773 69.3584C103.773 69.3584 114.601 67.8367 127.957 65.9597Z"></path>
  </clipPath>
  <g clip-path="url(#cl_b)">
    <path transform="matrix(0.112281 0 0 0.112281 127.957 65.9597)" d="M-0.00012207 -61.5001C33.6892 -61.5001 60.9999 -33.9656 60.9999 -6.10352e-05C60.9999 33.9655 33.6892 61.4999 -0.00012207 61.4999C-33.6895 61.4999 -61.0001 33.9655 -61.0001 -6.10352e-05C-61.0001 -33.9656 -33.6895 -61.5001 -0.00012207 -61.5001Z"></path>
  </g>
  <path fill="white" transform="matrix(0.111188 0.0156265 -0.0156265 0.111188 71.9088 66.4397)" d="M-6.37024e-08 -4.27496C120.122 -4.27496 217.5 -3.34061 217.5 -3.34067C217.5 116.505 120.122 217 3.23355e-06 217C-120.122 217 -217.5 116.505 -217.5 -3.34054C-217.5 -3.34048 -120.122 -4.27497 -6.37024e-08 -4.27496Z"></path>
  <clipPath id="cl_c">
    <path d="M71.9756 65.9643C85.3317 67.8414 96.1444 69.467 96.1444 69.467C94.2716 82.7924 81.874 92.4445 68.5179 90.5675C55.1618 88.6904 45.9049 75.9949 47.7776 62.6695C47.7776 62.6695 58.6195 64.0872 71.9756 65.9643Z"></path>
  </clipPath>
  <g clip-path="url(#cl_c)">
    <path transform="matrix(0.112281 0 0 0.112281 71.9088 66.4397)" d="M0 -61.5C33.6894 -61.5 61 -33.9655 61 0C61 33.9655 33.6894 61.5 0 61.5C-33.6894 61.5 -61 33.9655 -61 0C-61 -33.9655 -33.6894 -61.5 0 -61.5Z"></path>
  </g>
</svg>