<?xml version="1.0" encoding="utf-8"?>
<svg xmlns="http://www.w3.org/2000/svg" xmlns:xlink="http://www.w3.org/1999/xlink" width="200" height="112">
  <path fill="#313131" transform="matrix(0.280702 0 0 0.280702 -1.05264 0)" d="M-0 -0L720 0L720 399L-0 399L0 -0Z"></path>
  <path fill="#FFD700" transform="matrix(0.280702 0 0 0.280702 -1.05264 0)" d="M0 0L720 0L720 399L0 399L0 0Z"></path>
  <path fill="white" transform="matrix(0.112281 0 0 0.112281 130.202 55.714)" d="M0 -217C120.122 -217 217.5 -119.846 217.5 0C217.5 119.846 120.122 217 0 217C-120.122 217 -217.5 119.846 -217.5 0C-217.5 -119.846 -120.122 -217 0 -217Z"></path>
  <clipPath id="cl_3">
    <path d="M130.202 31.3491C143.69 31.3491 154.623 42.2577 154.623 55.714C154.623 69.1704 143.69 80.079 130.202 80.079C116.715 80.079 105.781 69.1704 105.781 55.714C105.781 42.2577 116.715 31.3491 130.202 31.3491Z"></path>
  </clipPath>
  <g clip-path="url(#cl_3)">
    <path transform="matrix(0.112281 0 0 0.112281 130.202 55.714)" d="M0 -61.5C33.6894 -61.5 61 -33.9655 61 0C61 33.9655 33.6894 61.5 0 61.5C-33.6894 61.5 -61 33.9655 -61 0C-61 -33.9655 -33.6894 -61.5 0 -61.5Z"></path>
  </g>
  <path fill="#FFD700" transform="matrix(0.224561 0 0 0.224561 130.09 88.893)" d="M-125.657 67.4336L124.936 67.4336C124.936 67.4336 195.163 -108.917 124.936 -67.5665C54.7082 -26.2159 -53.2939 -26.2159 -125.657 -67.5665C-198.021 -108.917 -125.657 67.4336 -125.657 67.4336Z"></path>
  <path fill="#FFD700" transform="matrix(0.224561 0 0 0.224561 130.09 20.8509)" d="M-125.657 67.4336C-49.7727 33.6836 54.5379 33.6836 124.936 67.4336C195.333 101.184 124.936 -67.5665 124.936 -67.5665L-125.657 -67.5665C-125.657 -67.5665 -201.542 101.184 -125.657 67.4336Z"></path>
  <path fill="white" transform="matrix(0.112281 0 0 0.112281 69.6632 56.194)" d="M-6.10352e-05 -217C120.122 -217 217.5 -119.846 217.5 -3.05176e-05C217.5 119.846 120.122 217 -6.10352e-05 217C-120.122 217 -217.5 119.846 -217.5 -3.05176e-05C-217.5 -119.846 -120.122 -217 -6.10352e-05 -217Z"></path>
  <clipPath id="cl_4">
    <path d="M69.6632 31.8291C83.1506 31.8291 94.0843 42.7377 94.0843 56.194C94.0843 69.6504 83.1506 80.559 69.6632 80.559C56.1758 80.559 45.2421 69.6504 45.2421 56.194C45.2421 42.7377 56.1758 31.8291 69.6632 31.8291Z"></path>
  </clipPath>
  <g clip-path="url(#cl_4)">
    <path transform="matrix(0.112281 0 0 0.112281 69.6632 56.194)" d="M-6.10352e-05 -61.5C33.6893 -61.5 60.9999 -33.9655 60.9999 -3.05176e-05C60.9999 33.9655 33.6893 61.5 -6.10352e-05 61.5C-33.6894 61.5 -61.0001 33.9655 -61.0001 -3.05176e-05C-61.0001 -33.9655 -33.6894 -61.5 -6.10352e-05 -61.5Z"></path>
  </g>
  <path fill="#FFD700" transform="matrix(0.224561 0 0 0.224561 69.7193 88.8677)" d="M-125.657 67.4336L124.936 67.4336C124.936 67.4336 124.936 -67.5665 124.936 -67.5665C54.7082 -26.2159 -53.2939 -26.2159 -125.657 -67.5665C-125.657 -67.5665 -125.657 67.4336 -125.657 67.4336Z"></path>
  <path fill="#FFD700" transform="matrix(0.224561 0 0 0.224561 69.7193 21.8361)" d="M-125.657 67.4336C-49.7727 33.6836 54.5379 33.6836 124.936 67.4336C124.936 67.4336 124.936 -67.5665 124.936 -67.5665L-125.657 -67.5665C-125.657 -67.5665 -125.657 67.4336 -125.657 67.4336Z"></path>
</svg>